<svg version="1.2" xmlns="http://www.w3.org/2000/svg" viewBox="0 0 1362 327" width="1000" height="240" fill="white">
    <path d="m121.5 3.1c7.6-0.1 16.7 0.6 22 1.5 5 0.8 12.4 2.7 16.5 4.1 4.1 1.4 9.8 3.7 12.5 5.1 2.8 1.3 9.6 5.5 25.4 15.7v18.8c0.1 17.7 0 18.8-1.9 19.7-1.1 0.6-2.2 1-2.5 1-0.3 0-2.5-4.2-5-9.3-2.7-5.5-7.1-12.3-11-16.9-3.6-4.3-6.5-8.5-6.5-9.3 0-0.8-0.7-1.5-1.5-1.5-0.8 0-5.7-2.8-10.7-6.2-5.1-3.5-12.7-7.6-16.8-9.2-6.2-2.4-9.4-3-18.5-3.3-7.4-0.3-13.3 0-18 1-3.9 0.8-10.1 2.4-14 3.5-3.9 1.2-9.9 4-13.5 6.4-3.5 2.4-8.9 7.3-12 11-3 3.6-6.7 9-8.2 12-1.4 2.9-3.3 6.9-4.1 8.8-0.8 1.9-2.2 5.5-3 8-0.9 2.5-2.1 6.5-2.7 9-0.6 2.5-1.7 9.9-2.5 16.5-0.8 6.6-1.5 16.6-1.5 22.3 0 9.5-0.1 10.2-2 10.2-1.1 0-2 0.3-2 0.7 0 0.5 1.1 1.9 2.5 3.3 1.7 1.7 2.7 4 3.1 7 0.3 2.5 1.2 8.1 2.1 12.5 0.8 4.4 2.1 10.5 3 13.5 0.8 3 3.7 10 6.4 15.5 2.7 5.5 7.7 13.6 11.3 18 3.5 4.4 9 10.1 12.2 12.6 3.3 2.5 8.2 5.7 10.9 7.2 2.7 1.4 7.1 3.5 9.8 4.6 2.6 1.2 8.5 3 13.2 4.1 5.7 1.3 12 2 29.5 2v3.5c0 3.3-0.2 3.6-5 5-2.8 0.8-8.5 2-12.8 2.6-4.5 0.7-13 0.9-20.7 0.5-7.7-0.3-16.4-1.4-21.3-2.6-4.5-1.1-11.7-3.3-15.9-5-4.3-1.6-11-5.1-15-7.7-4-2.6-10.2-7.4-13.8-10.6-4.7-4.1-6.5-6.4-6.5-8.2 0-1.8-0.6-2.6-2.2-3-1.4-0.2-3.9-2.9-6.5-6.7-2.3-3.5-4.9-7.9-5.8-9.8-1.1-2.2-1.5-4.6-1.1-6.3 0.5-2.2 0.2-2.8-1.4-3.2-1.1-0.3-2.3-1.2-2.7-2-0.5-0.8-0.5-1.7 0-2 0.4-0.3 2.3 0.1 4.2 0.7 1.9 0.7 3.7 1 4 0.5 0.3-0.4-0.1-1.6-0.7-2.7-0.7-1.1-3.4-3-6-4.2-3.8-1.8-5-3-5.7-5.8-0.6-1.9-1.7-7.8-2.6-13-0.9-5.8-1.5-15.8-1.5-25.5 0.1-11.2 0.6-19.3 2-27 1.4-7.9 2.4-11.4 3.7-12.3 1-0.7 2.6-1.2 3.6-1.2 1 0 1.7-0.8 1.7-2 0-1.1-0.5-2.2-1-2.5-0.5-0.3-1-1.6-1-3 0-1.4 0.6-3.7 1.3-5.1 0.6-1.4 2.2-2.7 3.5-3 1.8-0.3 2.2-1.1 2.2-4.2 0-2.2 0.9-5 2.3-7 1.2-1.7 3.1-3.5 4.2-3.8 1.4-0.4 2.9 0.3 4.8 2.3 1.5 1.5 2.5 3.4 2.2 4-0.3 0.7 0.2 1.7 1 2.3 1.1 0.7 1.7 0.6 2.1-0.2 0.4-0.7 0.2-2.2-0.4-3.3-0.6-1.1-2-4.3-5.5-12l5.9-5.5c3.2-3.1 8.6-7.4 11.9-9.6 3.3-2.3 9.1-5.7 13-7.6 3.9-2 10.4-4.7 14.5-6 4.1-1.4 9.3-3.1 11.5-3.7 2.2-0.6 4.9-1.1 6-1.1 1.1 0 4.7-0.6 8-1.4 3.5-0.8 11.4-1.5 19-1.5zm1176.3 53.9c3.4 0 9.7 0.5 14 1 4.2 0.6 9.3 1.5 11.2 2.1 1.9 0.5 7.2 2.4 11.8 4.2 5.9 2.3 8.2 3.7 8.2 5 0 0.9-0.7 1.7-1.5 1.7-0.8 0-1.5 0.7-1.5 1.5 0 0.8 0.6 1.8 1.4 2.3 1.1 0.5 1.5 3.8 1.8 13.6 0.2 9.7 0 13-0.9 13.3-0.7 0.1-1.6-0.7-2-1.9-0.4-1.3-3.2-5.7-6.3-9.8-3.2-4.1-8.6-9.8-12.1-12.7-3.5-2.8-8.9-6.3-11.9-7.6-3.5-1.6-8.3-2.8-13.5-3.2-4.4-0.4-11.8-0.3-16.5 0.1-7.1 0.6-9.2 1.3-13 3.8-2.7 1.9-5.4 4.9-6.8 7.6-1.9 3.7-2.3 5.6-1.9 10.5 0.2 3.7 1.4 8.1 3.1 11.5 1.4 3 4.5 7.1 6.7 9 2.3 1.9 5.4 4.7 7 6.3 1.6 1.5 3.8 2.7 4.9 2.7 1.1 0 2.9 1 4 2.3 1.5 1.7 2.1 1.9 2.7 0.9 0.6-1.1 3.2-0.7 12.8 1.8 6.6 1.7 14.9 4.3 18.5 5.7 3.6 1.4 9.4 4.3 13 6.3 3.6 2.1 8 4.9 9.8 6.4 1.7 1.4 3.2 3.3 3.2 4.1 0 0.8 1.2 2.1 2.8 2.8 1.9 0.8 3.8 3.5 6.4 8.7 2 4.1 4 9.5 4.3 12 0.4 2.5 0.6 8.3 0.6 13 0 4.7-0.5 10.8-1 13.5-0.5 2.8-1.9 7.5-3 10.5-1.1 3-3.6 7.6-5.6 10.3-3 4-4 4.7-7 4.7-2.1 0-3.5 0.5-3.5 1.3-0.1 0.6-1.3 2.6-2.8 4.3-1.5 1.8-4.5 3.9-6.7 4.9-2.2 0.9-6.2 2.1-9 2.7-2.7 0.5-7.2 1.3-10 1.6-2.7 0.4-9 0.6-14 0.5-5-0.1-13-0.9-18-1.9-5-0.9-12.2-2.7-16-4.1-3.8-1.3-9.9-4-13.5-6.1-3.6-2-9.3-6-12.7-8.9-3.5-2.9-6.1-5.9-6-6.5 0.2-0.7 2.6-2.1 5.3-3.1 2.7-1 6.9-3.3 9.4-5.1 2.5-1.8 5.1-3.5 5.8-3.9 0.7-0.4 3.5 1.8 7.5 5.9 3.4 3.6 8.9 8.6 12.2 10.9 3.3 2.4 8.7 5.6 12 7 3.3 1.5 9.7 3.2 14.2 3.8 5.6 0.8 8.4 1.7 8.8 2.7 0.3 0.8 1.2 2.7 2 4.2 0.8 1.6 2 2.8 2.5 2.8 0.5 0 1-0.3 1-0.8 0-0.4-0.6-2.4-1.5-4.5-0.8-2-1.5-3.8-1.5-4 0-0.1 2.3-0.5 5.2-0.8 2.9-0.4 7.7-1.5 10.7-2.5q5.5-1.9 10.6-6.9c3.7-3.5 5.6-6.3 6.5-9.5 1.1-3.5 1.1-5.6 0.2-9.5-0.7-2.8-2.6-7.2-4.4-9.9-1.8-2.8-5.3-6.4-7.8-8.2-2.5-1.8-7.7-4.8-11.5-6.8-3.8-1.9-11.7-5-17.5-6.9-5.8-1.9-13-4.2-16-5.1-3-0.9-6.8-2.2-8.3-2.9-2.2-1-2.8-1.8-2.7-4.5 0-1.7-0.5-3.2-1-3.2-0.5 0-1 0.9-1 2 0 1.2-0.7 2-1.7 2-1 0-4.2-1.5-7.1-3.3-5.1-3.1-5.2-3.3-5.2-8 0-2.8-0.4-4.5-1-4.2-0.5 0.3-1.5 1.7-3.1 6l-4-4c-2.2-2.2-5.3-6-6.9-8.5-1.6-2.5-4-8.1-5.5-12.5-1.9-6-2.5-10.1-2.5-16.3 0-4.5 0.7-10.8 1.6-14 0.9-3.1 3.1-8 5-10.7 1.8-2.8 4.6-6 6.3-7.3 1.7-1.2 3.6-2.2 4.1-2.2 0.6 0 2-0.6 3.3-1.4 1.2-0.8 5.8-2.6 10.2-4.1 4.4-1.4 9.1-2.5 10.5-2.5 1.4 0.1 3 0.8 3.6 1.8 1.1 1.5 1.2 1.5 1.8-0.6 0.5-1.8 1.3-2.2 4.6-2.2 3.1 0 4 0.4 4.1 1.7q0 2.1 0.6 0.3c0.3-0.8 1.1-1.8 1.7-2.2 0.6-0.4 3.9-0.8 7.4-0.8zm-548.3-53c36 0 38.5 0.1 38.5 1.7 0 1-2 3.3-4.5 5-2.5 1.8-5.4 4.8-6.5 6.5-1.1 1.8-2.3 5.3-2.6 7.8-0.4 2.9 0 6.8 1 10.7 0.9 3.5 1.4 7 1.1 7.8-0.3 0.8 0.4 2.3 1.4 3.3 1 0.9 2.7 4.2 3.6 7.2 1 3 2.8 7.8 4 10.5 1.3 2.8 4.1 9.9 6.4 16 2.2 6.1 4.1 11.6 4.1 12.3 0 0.6-0.6 2-1.2 3.1-1.1 1.6-0.9 2.2 2.2 4.8 2.4 2.1 4.4 5.3 6.3 10.4 1.6 4.1 3.5 8.8 4.2 10.4 0.7 1.6 3.4 8.2 5.9 14.5 2.5 6.3 6 14 7.8 17 2.6 4.3 3.9 5.6 6.1 5.7 2 0.2 3.3-0.5 5-2.7 1.4-2 2.7-2.8 3.7-2.4 1.2 0.5 1.4 0 0.8-2.3-0.4-1.9 0.3-5 2.2-9.8 1.5-3.9 3.6-9.6 4.6-12.9 1-3.2 2.5-6.2 3.2-6.7q1.2-0.9 2.2 1.1c0.5 1.1 1 2.8 1 3.7 0 1 0.7 2.5 1.4 3.3 0.8 0.8 1.9 3.1 2.4 5 0.6 1.9 0.7 5.1 0.2 7-0.4 1.9-4.4 14.1-8.8 27-4.4 12.9-11.2 32.7-15.1 44-3.9 11.3-7.1 20.6-7.1 20.8 0 0.1-1.3 0.9-3 1.7-1.7 0.8-3.3 1.5-3.7 1.5-0.5 0-1.3-1.2-2-2.7-0.6-1.6-2.3-5.5-3.6-8.8-1.4-3.3-5.4-13.2-9-22-3.6-8.8-9.2-22.8-12.6-31-3.3-8.3-6.1-15.6-6.1-16.3 0-0.6 1.3-2.7 3-4.4 1.6-1.8 2.9-3.7 3-4.3 0-0.6 1.3-2.2 2.8-3.8 1.5-1.5 2.2-2.7 1.7-2.7-0.5 0-3.4 1.8-6.2 4-2.9 2.2-5.8 4-6.3 4-0.5 0-2.1-2.4-3.4-5.2-1.4-2.9-2.7-6.5-3-8-0.4-1.6-0.2-2.8 0.4-2.8 0.5 0 1-0.4 1-1 0-0.6-0.7-0.9-1.7-0.7-1.1 0.1-2.4-1.7-4.4-6.3-1.5-3.6-5.5-13.3-8.8-21.5-3.4-8.3-6.1-15.7-6.1-16.5 0-0.8-0.5-2.1-1.2-2.8-1.1-1-1-1.7 0.1-3.5 1.2-2 1.1-2.4-1.6-4.7-1.6-1.4-4-4.8-5.5-7.5-1.4-2.7-5.8-12.9-9.8-22.5-5.9-14.3-7.1-17.8-6.1-19.3 0.9-1.4 0.8-1.7-1.1-1.7-1.6 0-3.3-1.5-5.5-5-1.8-2.8-5.5-6.6-8.3-8.5-3.2-2.2-5-4.2-5-5.5 0-2 0.7-2 38.5-2zm32 123c-1.6 0-2.5 0.6-2.5 1.5 0 0.8 0.7 1.5 1.5 1.5 0.8 0 2.8-0.7 4.5-1.5 1.7-0.8 2.8-1.9 2.5-2.5-0.3-0.6-0.9-1-1.5-1-0.5 0-1.1 0.4-1.5 1-0.3 0.6-1.6 1-3 1zm39-123c15 0 16.7 0.2 19 2 2.1 1.7 2.8 1.8 4.6 0.8 1.7-1 2.2-1 2.5 0 0.2 0.6 1.3 1.2 2.4 1.2 1.2 0 2.2-0.8 2.5-2 0.5-1.9 1.3-2 14.5-2 8.3 0 14.2 0.4 14.5 1 0.3 0.6 0.3 1.6-0.1 2.3-0.3 0.6-1.9 2.1-3.6 3.2-1.7 1.1-4.5 3.7-6.2 5.8-2.5 3.2-3.2 5-3.5 10-0.2 3.8 0.3 8.2 1.2 11.2 0.8 2.8 3.4 10.2 5.7 16.5 2.3 6.3 4.5 11.9 4.9 12.5 0.4 0.6 2.5 5.7 4.6 11.5 2 5.8 4.4 12.1 5.3 14 0.8 1.9 1.7 5.3 2 7.5 0.3 2.2 1.3 5.1 2.3 6.5 1 1.4 4.6 9.5 7.9 18 3.4 8.5 7.9 19.2 10.1 23.8 2.1 4.5 5 9.1 6.4 10.2 1.8 1.4 3 1.7 4.3 1.1 0.9-0.5 2.4-1.9 3.2-3.2 0.9-1.3 2.8-5.3 4.3-8.9 1.4-3.6 4.4-11.4 6.6-17.5 2.1-6.1 6.2-17.5 8.9-25.5 2.8-8 5.3-15.2 5.6-16 0.3-0.8 1.6-1.8 2.8-2.2 2-0.6 2.2-1.1 1.6-4.2-0.7-2.9 0.1-6.1 3.8-16.8 2.5-7.3 5.2-15.5 6-18.3 0.7-2.7 1.4-7.6 1.4-10.7 0-3.6-0.8-8-2.2-11.5-1.3-3.6-3.8-7.4-6.3-9.8-2.3-2.2-5.3-5-6.8-6.2-1.5-1.3-2.5-2.7-2.2-3.3 0.3-0.6 9.3-1 24-1 14.7 0 23.7 0.4 24 1 0.3 0.6-0.3 2-1.4 3.3-1 1.2-2.5 3.5-3.3 5.2-0.8 1.7-2.6 6.3-3.9 10.4-1.6 5.1-3 7.6-4.1 7.8-1.5 0.2-1.6 0.6-0.6 2.1 0.9 1.3 0.8 2.5-0.3 5.1-0.8 1.9-2.5 3.8-3.9 4.3-2.3 0.9-2.5 1.2-1.8 5.6 0.6 3.6 0.2 6.3-1.4 11.2-1.1 3.6-2.4 6.9-2.8 7.5-0.4 0.6-2.5 5.9-4.5 12-2.1 6.1-9.1 26.5-15.6 45.5-6.4 19-14.3 41.7-17.4 50.5-3.1 8.8-8.9 25.6-12.8 37.2-6.7 19.9-7.4 21.4-10.4 23-2.1 1.2-3.6 1.5-4.1 0.8-0.5-0.6-1.9-3.5-3.1-6.5-1.3-3-8.3-20.6-15.7-39-7.4-18.4-13.9-34.4-14.4-35.5-0.5-1.1-2.3-5.4-4-9.5-1.7-4.1-3.5-8.4-3.9-9.5-0.5-1.1-1.4-3.4-2.1-5-0.7-1.6-4.1-10.2-7.6-19-3.6-8.8-6.4-17-6.4-18.2 0-1.3-0.3-2.3-0.7-2.3-0.5 0.1-2.5-4.1-4.7-9.2-2.1-5.1-5.4-12.3-7.2-16.1-2.1-4.1-3.1-7.3-2.6-8.2 0.4-1-0.1-2.4-1.4-3.8-1.1-1.2-4.5-7.8-7.4-14.7-2.9-6.9-6.7-14.8-8.5-17.5-1.8-2.7-5-6.7-7.1-8.8-2.2-2.1-4.7-4-5.6-4.2-1-0.3-2-1.2-2.3-2-0.3-0.8-0.3-1.9 0-2.5 0.4-0.6 7.1-1 17-1zm193 50c0.5 0 2 2.4 3.1 5.3 1.2 2.8 4.2 9.7 6.7 15.2 2.4 5.5 6.8 15.9 9.7 23 2.8 7.1 5.9 14.4 6.7 16 0.9 1.6 1.3 3.9 0.9 5-0.3 1.1 0.1 3 0.9 4.3 0.8 1.2 1.8 4.3 2.1 7 0.3 2.6 0.8 5.4 1.1 6.2 0.4 1.3 0.6 1.2 1.4-0.2 0.5-1 1.4-1.8 1.9-1.8 0.5 0 1 0.9 1 2 0 1.1 0.5 2 1 2 0.5 0 1 0.4 1 1 0 0.6 2.8 7.6 6.1 15.8 3.4 8.1 6.4 15.6 6.7 16.7 0.2 1.1 0.5 3.8 0.6 6 0.1 2.7 1 5 2.9 7.3 2.1 2.5 2.7 4.2 2.7 8.2 0 4.5 0.2 5 2.3 5 1.2 0 3 1.2 4 2.5 0.9 1.4 1.5 2.9 1.2 3.5-0.3 0.6 0.1 1.6 0.8 2.3 0.8 0.6 2.8 4.6 4.5 8.7 1.8 4.1 4.1 8.5 5.2 9.8 1.2 1.3 3.2 2.2 5 2.2q3 0 4.5-2.2c1-1.6 1.5-4.8 1.5-10.5 0-6.7 0.3-8.3 1.5-8.3 1.3 0 1.3-0.3 0-2.5-1.3-2.1-1.5-8.2-1.5-37.2 0-26 0.3-35.1 1.2-36 0.9-1 0.9-1.3 0-1.3-0.8 0-1.2-2.4-1.2-8 0-4.4 0.5-8.2 1-8.5 0.5-0.3 1-1.6 1-3 0-1.4-0.5-2.7-1-3-0.6-0.3-1-5.8-1-13.5 0-8.7 0.4-13.6 1.3-15 1-1.6 0.9-2.3-1-4.2-1.3-1.3-2.3-2.9-2.3-3.5 0-0.7-2-3-4.5-5-2.5-2.1-4.6-4.4-4.5-5 0-0.7 0.8-1.4 1.8-1.4 0.9-0.1 2.8-0.2 4.2-0.4 1.4-0.1 15.3-0.5 31-0.9 19.1-0.5 33-0.4 42 0.4 7.4 0.6 16.2 1.8 19.5 2.6 3.3 0.9 8.4 2.6 11.3 4 2.8 1.3 5.5 2.4 6 2.4 0.4 0 3.1 2.4 6 5.5 2.8 3 5.5 6.7 5.8 8.3 0.3 1.5 1.3 4.1 2.2 5.7 1.3 2.3 1.7 5.7 1.7 14 0 8.5-0.4 12.1-1.9 16-1.1 2.8-2.7 6.1-3.5 7.5-0.8 1.4-3.1 4.3-5 6.5-1.9 2.2-5.3 5.4-7.6 7.1-2.2 1.7-6.4 4.3-9.3 5.8-2.8 1.4-5.9 2.6-6.7 2.6-0.8 0-1.5 0.2-1.5 0.5 0 0.3 2.1 2.4 4.8 4.8 2.6 2.4 6.7 7.5 9.1 11.3 2.5 3.8 11.6 21 20.3 38.2 13.2 26.1 15.6 31.5 14.6 32.7-0.7 0.9-1.9 1.6-2.5 1.5-0.7 0-1.3 0.4-1.3 1 0 0.6 1.7 1.1 3.7 1.3 3.2 0.2 4.1 0.8 6 4.2 1.3 2.2 2.3 4.4 2.3 5 0 0.6-2 1-4.5 1-2.9 0-4.5 0.4-4.5 1.3 0 0.6 0.8 1.1 1.8 1 0.9-0.1 2.8 0.6 4.2 1.5 1.4 1 3.4 1.6 4.4 1.5q2-0.3 4 3c1.2 1.8 4.8 7.4 8.1 12.5 3.4 5.1 7 10.2 8 11.5 1.1 1.2 2.5 2.2 3 2.2 0.5 0 2.1 1 3.4 2.3 1.3 1.2 4.6 3 7.5 3.9 2.8 0.9 5 2 4.9 2.5-0.2 0.4-3.1 0.9-6.5 1.1-3.6 0.2-9.1-0.4-12.8-1.3-3.6-0.9-10.8-3.8-16-6.3-5.2-2.5-11.5-6.4-13.9-8.6-2.4-2.3-6.9-7.2-10.1-11.1-3.1-3.9-8-10.4-10.7-14.5-2.8-4.1-6.8-10.4-8.8-14-2.1-3.6-6.7-12.1-10.2-19-3.6-6.9-8-15-9.8-18-1.7-3-7.2-12.6-12.1-21.4-4.9-8.7-10.5-17.6-12.4-19.8-1.9-2.2-5.2-5-7.3-6.2-2.1-1.1-4-2.9-4.2-3.9-0.3-0.9-0.3-2.1 0-2.7 0.3-0.6 1.7-1 3.3-1 1.5 0 5.4-0.9 8.7-1.9 3.3-1 7.8-2.7 10-3.6 2.2-1 6.3-4.1 9.1-6.9 4-4 5.5-6.4 6.9-11.1 1.1-3.7 1.8-9.6 1.9-15.3 0.1-7.6 0.4-9.6 1.8-10.5 1-0.7 1.7-1.6 1.8-2.2 0-0.6-0.5-0.4-1.2 0.3-0.7 0.6-1.8 1.2-2.5 1.2-0.7 0-1.3-0.7-1.3-1.5 0-0.8-1.1-4-2.5-7-1.4-3-4.2-7.1-6.2-9.1-2.1-2-6.6-4.9-10-6.5-5.9-2.7-7.1-2.9-32.3-2.9v23c0 19.6-0.2 23.1-1.5 23.5-0.8 0.3-1.5 1.4-1.5 2.5 0 1.1-0.7 2.2-1.5 2.5-0.8 0.3-1.4 1.1-1.2 1.7 0.2 0.7 1.5 1.3 5.2 1.3v13.2c0 12.9-0.1 13.2-2.3 13.8-1.2 0.3-2.2 0.9-2.2 1.5 0 0.6 1.1 0.8 5 0v35.3c0.1 33.2 0.2 35.4 2 38.5 1.1 1.7 3.4 3.8 5 4.5 1.7 0.7 3 1.9 3 3 0 1.6-2.3 1.7-33.8 1.7-22.7 0-34-0.3-34.7-1-0.7-0.8-2.2-0.8-5-0.1-2.2 0.6-12 1.1-21.8 1.1-10.8 0-17.9-0.4-18.2-1-0.3-0.6 1.2-2.1 3.3-3.4 2-1.3 4.5-3.2 5.5-4.2 0.9-1.1 2.1-3.7 2.6-5.9 0.7-2.6 0.6-5.7-0.1-9-0.6-2.7-2-7-3.3-9.5-1.2-2.5-3.7-8.3-5.5-13-1.9-4.7-4.1-9.3-5-10.3-1.3-1.5-3.1-1.8-12-1.7-7.8 0-11.5 0.5-14.5 1.8-2.2 1-5.6 3.7-7.5 6-1.9 2.4-4 4.3-4.5 4.2-0.6 0-0.8-1.5-0.4-3.7 0.4-2.1 2.2-7.1 7.4-18.4l13.3 0.1c7.2 0 13.2-0.3 13.2-0.7 0-0.5-3.4-8.9-7.6-18.8-4.1-9.9-9-21.3-10.7-25.3-1.8-3.9-3.4-6.9-3.8-6.5-0.3 0.5-2.2 5.1-4.2 10.3-2 5.2-8.5 21.9-14.3 37-5.8 15.1-13.6 35.2-23.9 61.9l-9.9 5.3c-5.4 2.9-10.4 5.5-11 5.7-0.7 0.3-0.8-0.1-0.4-1 0.4-0.8 4.1-10.2 8.3-20.9 4.2-10.7 10.1-26 13.2-34 3.3-8.6 6.5-15.4 7.9-16.7 1.3-1.3 2.4-2.6 2.4-3 0.1-0.5 0.8-1.3 1.8-2 1.6-1 1.6-1.2 0-3-1.5-1.7-1.3-2.7 4.8-17.8 3.5-8.8 7.8-19.8 9.5-24.5 1.8-4.7 4-9.3 5-10.2 1.2-1.1 1.7-2.5 1.3-3.5-0.4-1-0.2-2.7 0.5-3.8 0.6-1.1 3-7.2 5.5-13.5 2.4-6.3 5.5-13.7 6.9-16.5 1.3-2.7 3.7-6 5.3-7.2 1.6-1.2 3.4-2.3 3.9-2.3zm-791.4 5c4.7 0 8.7 0.4 9 1q0.5 1 2.5 0c1.1-0.6 4.4-1 7.2-1 3.6 0.1 5.6 0.6 6.3 1.6 0.5 0.8 2.6 1.6 4.5 1.7 2.8 0.2 3.5-0.1 3.2-1.5-0.2-1.6 0.8-1.8 8.3-1.8 6.1 0 8.5 0.3 8.5 1.3 0 0.6-2 2.7-4.5 4.5-2.5 1.7-5.3 4.7-6.2 6.5-1.5 2.8-1.7 6.3-1.5 27 0.2 22.5 0.1 23.8-1.8 25.7-1.8 1.8-1.9 2.2-0.5 4.3 0.8 1.2 1.5 3.9 1.5 6 0 2-0.7 5.1-1.5 6.7-1.4 2.7-1.3 3 0.1 2.8 1.4-0.3 1.6 1.1 1.5 10.2-0.1 5.8 0.3 16.1 0.8 23 0.6 7.9 1.7 14.9 3.1 19 1.2 3.6 3.6 8.8 5.4 11.5 1.8 2.8 5.4 6.4 8.2 8.2 2.7 1.8 7.4 4 10.4 4.8 3 0.8 8.2 1.8 11.5 2.1 3.7 0.4 8.5 0.2 12.5-0.6 3.6-0.7 8.3-2.1 10.5-3.2 2.2-1 6.6-4.2 9.9-7 3.6-3.3 6.4-6.8 7.3-9.3 0.8-2.2 2.7-7.6 6.7-20l0.7-109 2.2-1.7c1.2-0.9 1.9-1.9 1.4-2.2-0.4-0.3-1.6 0-2.6 0.7-1.6 1-2.3 0.8-4.7-1.8-1.6-1.7-5.1-3.9-7.7-5-2.6-1.1-4.7-2.6-4.7-3.2 0.1-1 8.7-1.3 39.3-1.2 28.9 0 39.6 0.3 40.6 1.2 1.1 0.9 1.5 0.9 1.8 0 0.2-1 8.1-1.3 35.3-1.3 27 0 35.1 0.3 35.6 1.3 0.5 1 0.8 1 1.7 0 0.6-0.7 2.4-1.3 3.9-1.3 1.6 0 3 0.6 3.3 1.5 0.3 0.8 1.2 1.5 2 1.5 0.8 0 1.7-0.7 2-1.5 0.4-1.2 2.4-1.5 9.5-1.5 6.5 0 9 0.3 9 1.3 0 0.6-2 2.8-4.5 4.7-3.4 2.7-4.7 4.5-5.5 7.8-0.6 2.3-1 16.9-1 33 0 23.9-0.2 29.1-1.5 31-1.3 1.9-1.3 2.4 0 4q1.5 1.7 1.5 8.7c0 5.9-0.3 7.2-2 8.3-1.1 0.6-2 1.9-2 2.7 0 0.8 0.9 1.9 2 2.5 1.9 1 2 2 2.1 23.8 0 13.8 0.5 24.4 1.2 27.2 0.9 3.3 2.1 5 4.7 6.7 3 2 4.8 2.4 12.3 2.3 5.8 0 10.2-0.6 13.4-1.8 2.7-1 7.5-3.8 10.8-6.4 3.3-2.5 8-6.7 10.5-9.4 2.5-2.7 5.5-6.1 6.8-7.6 1.2-1.6 3.2-2.8 4.4-2.8 2.2 0 2.3 0.2 1.5 5.7-0.4 3.2-1.6 10.1-2.7 15.3-1.1 5.2-2.4 9.9-3 10.5-0.5 0.6-0.6 2.2 0.5 6.5h-55.8c-46.9 0-55.7-0.2-55.5-1.4 0.2-0.7 2.3-2.9 4.8-4.8 2.5-1.9 5.9-5.6 10.5-13.1l0.3-36.6c0.2-21.8 0.7-37 1.3-37.6 0.5-0.6 0.9-2.8 0.9-5 0-2.2 0.6-4.9 1.5-6 0.8-1.1 1.5-2.3 1.5-2.7 0-0.5-1.1-0.8-5-0.8l-0.5-51.9-3-3c-2.4-2.5-4.2-3.2-9.5-3.9-4.5-0.6-8.5-0.5-13 0.4-5.4 1-7 1.8-11.9 7.9l-0.1 47.8c0 26.2-0.3 47.7-0.8 47.7-0.4 0-1.3 1-2 2.2-1.2 2-1.1 2.5 0.7 4.3 1.9 1.8 2.1 3.2 2 30l-4.9 6.5c-2.7 3.6-7.3 8.8-10.2 11.5-2.9 2.8-7.6 6.9-10.3 9.1-2.8 2.3-6.6 4.9-8.5 5.8-1.9 1-3.8 1.4-4.3 0.9-0.4-0.4 0-2.2 0.8-3.8 0.8-1.6 1.8-5.2 2.2-8 0.3-2.7 0.8-23.2 1-45.5 0.2-23.1 0.8-41 1.4-41.7 0.6-0.8 0.5-2-0.1-3.3-0.5-1.1-1-5-1-15.5l7.5-3.6-7.5 1.1v-20.7c0-13.1-0.4-22.1-1.1-24.3-0.7-1.9-2.1-4.5-3.3-5.7-1.4-1.5-4.2-2.6-8.1-3.3-3.3-0.6-8-0.9-10.5-0.7-2.5 0.2-5.1 0.6-5.8 1-0.6 0.4-2.1 2.4-3.1 4.5-1.8 3.5-2 6.9-2.4 57.2-0.4 49-0.6 54.2-2.5 62-1.1 4.7-3 11-4.3 14-1.3 3-4 7.8-6 10.5-2 2.8-5.2 6.4-7 8.2-1.9 1.7-6.3 4.7-9.9 6.6-3.6 2-9.6 4.4-13.5 5.4-5.4 1.4-10.6 1.8-22.5 1.8-11.2 0-17.6-0.5-23-1.8-4.1-1-10-2.7-13-3.9-3-1.2-7.9-3.8-10.9-5.7-3-2-7.2-5.6-9.3-8.1-2.2-2.5-5-6.3-6.2-8.5-1.2-2.2-3.2-6.5-4.3-9.5-1.2-3-2.8-9.6-3.7-14.5-0.9-5-1.6-14.6-1.6-21.5 0-8.8 0.3-12.9 1.2-13.7 1.1-1.1 1.1-1.5 0-2.5-0.7-0.7-1.2-3.3-1.2-5.8 0-2.6 0.7-5.1 1.5-6 1.4-1.3 1.4-1.7 0-3-1-0.9-1.6-3.1-1.5-5.7 0-2.4 0.5-4.3 1-4.3 0.5 0 1-0.8 1-1.7 0-1-0.4-2.2-1-2.8-0.6-0.6-0.7-2.3-0.2-4.3 0.4-1.8 1.3-3.2 1.9-3.2 0.7 0 1.3-0.4 1.3-1 0-0.6-0.6-1.3-1.4-1.7-0.7-0.5-1.7-2.4-2.1-4.3-0.4-1.9-0.9-9.8-1.1-17.5-0.2-7.7-0.8-14.9-1.4-16-0.6-1.1-2.6-3.1-4.6-4.5-1.9-1.4-3.5-3.3-3.4-4.2 0-1.6 1.1-1.8 8.5-1.8zm388.9 0c36.2 0 46.8 0.3 54.3 1.6 5 0.8 12.5 2.6 16.4 4 4 1.3 8 2.4 8.8 2.4 0.8 0 3.4 1.2 5.8 2.6 2.3 1.5 6.2 4.3 8.7 6.3 2.4 2 6.4 6.3 8.8 9.6 2.4 3.3 5.2 7.8 6.1 10 1 2.2 2.3 5.4 2.9 7 0.6 1.6 1.8 5.7 2.6 9 0.9 3.3 1.6 7.2 1.6 8.8 0 1.7-0.5 2.6-1.2 2.3-0.7-0.2-2.4-0.7-3.8-1.1-2.1-0.6-1.9-0.1 6.5 8.6v19.4l-3.3 1.5c-1.8 0.8-3.2 1.8-3.2 2.3 0 0.4 1.5 0.2 6.5-1.3l-0.8 6.7c-0.4 3.8-1.5 9.3-2.3 12.3-0.9 3-2.5 8-3.6 11-1.1 3-3.4 7.9-5.1 10.9-2.7 4.5-3.5 5.2-5.5 4.7-1.4-0.4-2.2-0.2-2.2 0.7 0 0.6 0.5 1.7 1.2 2.4 1 0.9 0.8 1.8-1.2 4.2-2 2.4-3.1 2.9-5.3 2.6-1.5-0.3-2.7-0.2-2.7 0.3 0 0.4 0.5 1.1 1.1 1.7 0.7 0.7-0.3 2.2-3.6 5-2.5 2.2-5.6 4-6.8 4-1.3 0-2.6 0.9-3.2 2.2-0.5 1.2-2.6 2.8-4.5 3.7-1.9 0.8-5.3 2.2-7.5 3.1-2.2 0.9-8.4 2.5-13.8 3.5-5.3 1.1-11.3 2-13.2 2-2.4 0-3.5-0.5-3.5-1.5 0-0.8 1.2-1.7 2.8-2 1.5-0.3 5-1.3 7.7-2.2 2.8-0.9 6.9-2.9 9.3-4.5 2.3-1.5 6-5.2 8.3-8 2.2-2.9 5.4-8 6.9-11.3 1.6-3.3 3.7-9.1 4.8-13 1.1-3.9 2.5-9.2 3.1-12 0.6-2.7 1.5-11.7 2.1-20 0.6-9.3 0.6-20.7 0-30-0.5-8.2-1.6-18.1-2.5-22-0.9-3.9-2.5-9.5-3.7-12.5-1.2-3-3.4-7.5-4.9-10-1.5-2.5-4.2-5.8-6.1-7.4-1.8-1.7-6.2-4.4-16.3-9.1l-41.5-0.5v12.8c0 8-0.4 13.1-1.1 13.7-0.8 0.7-0.8 1.6 0 3.3 0.6 1.2 1.1 4.8 1.1 8 0 4.3-0.4 6.2-2 8-1.1 1.2-2 2.5-2 3-0.1 0.4 0.8 1.9 2 3.5 1.9 2.6 2 4.1 2 75.7l-5.5 7c-3 3.9-6 6.8-6.5 6.5-0.5-0.3-1-1.2-1-2 0-0.8-0.8-1.7-1.8-2-1-0.3-2.2 0.2-2.9 1.2-0.7 1.2-0.8 2.2-0.2 2.8 0.5 0.6 0.9 1.8 0.9 2.8 0 0.9-0.7 1.7-1.5 1.7-1 0-1.5 1-1.5 2.8 0.1 2.1-1.4 4.1-6.5 9-4 3.8-7.4 6.2-11 6.2l0.3-76.7c0.2-42.3 0-78.3-0.3-80-0.3-1.8-1.6-4.5-2.8-6-1.3-1.6-4-3.6-6-4.5-2.1-1-3.7-2.5-3.7-3.3 0-1.3 5.7-1.5 45-1.5zm41.3 67c0.4 0 2 1.9 3.6 4.3 1.5 2.3 5.9 7 16.6 16.6l-10 10.1c-5.5 5.5-10.6 10-11.3 10-0.6 0-1.7-0.9-2.2-2-0.5-1.1-2.8-3.9-5.1-6.2-2.2-2.4-4.4-5.3-5-6.5-0.5-1.3-1.5-2.3-2.1-2.3-0.7 0.1-2.1-0.7-3-1.7-1.6-1.7-1.4-2.1 3.5-7.7 3.8-4.3 5.7-5.7 7-5.2 1.3 0.5 1.6 0.2 1.2-1.4-0.3-1.4 0.5-2.9 2.8-5 1.7-1.6 3.5-3 4-3zm-481.3 3.2c20.2-0.1 31.8 0.2 32.1 0.8 0.3 0.6 0.4 22.9 0.3 49.8-0.1 26.8-0.1 50.6 0 53 0.1 2.5-0.3 4.5-1.1 4.9-0.6 0.3-1.8-0.3-2.5-1.3-0.7-1-1-2.8-0.7-3.9 0.4-1.6 0.2-1.9-1.2-1.2-1.4 0.6-3-0.5-7-5-2.9-3.2-5.3-6.2-5.2-6.8 0-0.6-2.1-2.7-4.6-4.7-2.5-2.1-4.5-4.5-4.5-5.3 0-0.8-2-3.9-8.9-12l-0.3-23c-0.3-22.9-0.3-23-2.9-27-1.5-2.2-3.7-5-5-6.2-1.3-1.2-4.2-2.8-6.4-3.6-2.2-0.9-5.6-1.8-7.5-2.1-1.9-0.3-4.3-1.4-5.3-2.6-0.9-1.1-1.5-2.4-1.3-2.8 0.2-0.5 14.6-0.9 32-1zm-2.3 76c0.9 0.1 3.6 2.8 6.1 5.8 2.4 3 6.2 7.7 8.5 10.4 2.3 2.7 6.3 7.5 9 10.5 2.6 3.1 6 7 10.4 11.6v22.5c0 19.3 0.3 23.9 2.2 32.5 1.1 5.5 3 11.8 4.2 14 1.1 2.2 3.5 5.5 5.2 7.2 1.8 1.8 2.9 3.6 2.4 4-0.4 0.5-3.5-0.6-6.9-2.2-3.4-1.6-8.2-4.4-10.8-6-2.5-1.6-7-5-9.9-7.5-2.9-2.5-7.4-7.4-10.1-11-2.6-3.6-5.8-8.5-7-11-1.3-2.5-3-6.7-3.8-9.5-1-3.5-1.4-9-1.4-18 0.1-8.9 0.6-13.4 1.4-14.4 1-1.1 1-1.5 0-1.8-0.6-0.1-1.2-1.4-1.2-2.8 0-2.1 0.4-2.4 2.5-2 1.4 0.3 2.5 0.3 2.5 0 0-0.3-1-1.9-2.3-3.6-2-2.7-2.2-4.4-2.5-16.1-0.2-11.8-0.1-13 1.5-12.6z"/>
    <path d="m784.5 126c0.4-0.6 1-1 1.5-1 0.6 0 1.2 0.4 1.5 1 0.3 0.6-0.8 1.7-2.5 2.5-1.7 0.8-3.7 1.5-4.5 1.5-0.8 0-1.5-0.7-1.5-1.5 0-0.9 0.9-1.5 2.5-1.5 1.4 0 2.7-0.4 3-1zm-483.3 158c0-0.1 3.1-0.1 9.1 0 6.7 0 10.6-0.2 13.2 1 2.2 1 4.8 3.3 5.7 5 1 1.6 1.8 5 1.8 7.5 0 3.6-1.7 7.2-7.1 10.7l2.9 4.4c1.6 2.5 3.9 4.1 7.2 4.4 0.1 0 0 0.7 0 7h-4.8c-6.8 0-8.9-5.3-10.2-7.7-1.3-2.5-3.3-4.8-4.6-5.6-1.2-0.7-4.4-1.5-4.4-1.4 0 0.5 0.1 4.6 0.1 14.7h-9c0 0 0.1-39.2 0.1-40zm8.8 5.9c-0.3-0.1 0 12.8 0 13.9 0 0.2 7.3 0.4 8.3-0.2 2.9-1.8 4.4-5.2 2.7-9.8-1.8-4.8-10-3.7-11-3.9zm101-6c0.6 0 7.5-0.5 26.9 0v6.1h-17.9v10h15.2l0.1 6.9-15.3 0.1v10h18l-0.1 7h-26.9c0 0-0.1-40.1 0-40.1zm106 0.1c0.1-0.2 4.8-0.1 27.9-0.1v6.2l-17.9-0.1v10l15 0.1 0.1 6.8-15.1 0.1v16.4h-10c0 0-0.3-38.6 0-39.4zm121.7 40c-18.3 0-19.4-17.4-19.4-20.2-0.2-11.4 7.7-20.9 18.9-20.9 19.1 0 20 15.8 20 20.8 0 6.1-3.2 20.9-19.5 20.3zm10.6-21.1c0-3.7-1.1-13-10.5-13-8.4 0-9.8 11.1-9.8 13.6 0 3.9 0.9 13.5 10.5 14.1l0.4-0.1c3.5-0.4 9.4-3.6 9.4-14.6zm215.2 21.1c-4.9 0-6.8-0.5-10.2-2.7-2.7-1.8-5.1-4.5-6.5-7.3-1.2-2.6-2.1-6.4-2.2-9-0.4-9.4 5.1-22.3 19.5-22 13.8 0.4 16 8.9 15.6 14.8-1.4 0.2-6 0-7.6 0-0.1-1.5-1.2-7.8-7.6-7.8-10.2 0-10.5 11.4-10.5 13.5 0 2.5 0.9 13.7 11.5 13.2 6.3-1.1 7-6 7-6.6-0.6-0.2-7.6-0.1-10.6-0.1-0.1 0 0-5.8 0.2-6 1.2 0 18.4-0.1 18.4 0 0.2 0.2 0.4 9 0.3 20h-6.6c-0.1-1.6-0.5-1.9-1.2-2.5-2.3 1.7-5.9 2.5-9.5 2.5zm225.7-1.9c-2.9 1.2-6.7 1.7-22.2 1.2v-39.3c0 0 17.8-0.1 18.7-0.1 10.1 0 15.6 10.9 15.6 19.6-0.1 16.4-9.9 17.8-12.1 18.6zm-13.2-4.6c4.6 1.1 16.3-1.1 16.9-13 0.7-15.7-15.4-14.6-16.9-14.6 0 1.3 0 27.6 0 27.6zm-338.9-33.5c0-0.1 3.1-0.1 9.2 0 6.7 0 10.5-0.2 13.1 1 2.2 1 4.8 3.3 5.7 5 1 1.6 1.8 5 1.8 7.5 0 3.6-1.7 7.2-7 10.7l2.8 4.4c1.6 2.5 3.9 4.1 7.2 4.4 0.2 0 0 0.7 0 7h-4.8c-6.8 0-8.9-5.3-10.2-7.7-1.3-2.5-3.3-4.8-4.6-5.6-1.2-0.7-4.3-1.5-4.3-1.4 0 0.5 0 4.6 0 14.7h-9c0 0 0.1-39.2 0.1-40zm8.9 5.9c-0.3-0.1-0.1 12.8-0.1 13.9 0 0.2 7.4 0.4 8.3-0.2 2.9-1.8 4.4-5.2 2.7-9.8-1.7-4.8-10-3.7-10.9-3.9zm214.1-5.8c0.5 0 7.4-0.4 26.8 0.1v6.1l-17.9-0.1v10h15.2l0.2 7h-15.4v10h18l-0.1 7.1-26.9-0.1c0 0-0.1-40.1 0.1-40.1z"/>
</svg>